<svg 
	height='100px' 
	width='100px'  
	fill="#000000" 
	xmlns="http://www.w3.org/2000/svg" 
	xmlns:xlink="http://www.w3.org/1999/xlink" 
	version="1.1" 
	x="0px" y="0px" 
	viewBox="0 0 48 48" 
	style="enable-background:new 0 0 48 48;" 
	xml:space="preserve" >
	<style type="text/css">
		.st0{fill: rgba(255,255,255,0.5);}
		.st1{fill: rgba(255, 198, 11, 1);}
	</style>
	<g>
		<path 
			class="st0" 
			d="M47.9,46.6l-1.3-5l-4-15.9l-1.1-4.2c-0.1-0.4-0.5-0.8-1-0.8h-2.1c-0.4,0.7-0.8,1.3-1.2,2h2.6l0.6,2.4l-1.2,0.1   c-1.4,0.1-2.8,0.4-4.1,0.8c-0.7,1.1-1.4,2-1.9,2.8c2-0.9,4.1-1.4,6.2-1.6l1.5-0.1l3.1,12.5l-6-4.1c-1.6-1.1-3.5-1.7-5.5-1.7h-4.1   c-0.7,0-1.5-0.1-2.1-0.3l1.1-1c0.4-0.3,0.8-0.7,1.2-1l-0.3-0.4c-0.2-0.2-0.5-0.6-0.9-1.2c-0.5,0.3-0.9,0.7-1.3,1.1l-1.8,1.6   c-0.8-0.5-1.6-1.2-2.2-2c-1.7-2.4-4.3-3.8-7.2-4.1l-7.7-0.6l0,0l0.8-3.2h14.6c-0.4-0.7-0.8-1.3-1.2-2H7.3c-0.5,0-0.9,0.3-1,0.8   l-3,12.1l0,0.1c0,0,0,0,0,0L0,46.8c-0.1,0.3,0,0.6,0.2,0.8C0.4,47.9,0.7,48,1,48h46c0,0,0,0,0,0c0.6,0,1-0.4,1-1   C48,46.9,48,46.7,47.9,46.6z M18.1,42.1L17.7,46H2.3l2.7-10.6l4,2.5c1.1,0.7,2.5,1,3.8,0.8l1.5-0.3c1.3-0.2,2.7,0.4,3.4,1.5   C18,40.6,18.2,41.4,18.1,42.1z M13.9,36.5l-1.5,0.3c-0.8,0.1-1.7,0-2.4-0.5l-4.5-2.9l1.4-5.5l8,0.6c2.3,0.2,4.4,1.3,5.7,3.2   c0.9,1.3,2.1,2.3,3.5,3c0,0,0,0,0,0c0,0,0,0,0,0c1.3,0.7,2.8,1,4.4,1h4.1c1.6,0,3.1,0.5,4.3,1.3l1.5,1l-4.5,1.3   c-1.6,0.4-3.3,0.4-4.8-0.2c-3-1.2-6.4-0.8-9,1.1l-0.2,0.1c-0.1-0.5-0.3-1-0.6-1.5C18.2,37.1,16,36.1,13.9,36.5z M19.7,46l0.3-3.2   l1.2-0.9c2.1-1.5,4.7-1.8,7.1-0.9c1.9,0.7,4.1,0.9,6.1,0.3l6.2-1.7l4.2,2.9l0.9,3.6H19.7z">
		</path>
		<path 
			class="st1" 
			d="M40.4,10.4C40.4,4.7,35.7,0,30,0c-5.8,0-10.4,4.7-10.4,10.4S30,29.9,30,29.9S40.4,16.2,40.4,10.4z M22.7,10.4   c0-4,3.3-7.3,7.3-7.3c4,0,7.3,3.3,7.3,7.3S34,17.7,30,17.7C26,17.7,22.7,14.5,22.7,10.4z">
		</path>
	</g>
</svg>